<svg width="439" height="112" fill="none" xmlns="http://www.w3.org/2000/svg"><path fill-rule="evenodd" clip-rule="evenodd" d="M25.858 35.398v33.256h-.376L1.655 37.293v31.361H.853V35.398h.471L25.01 66.662V35.398h.85z" fill="#fff"/><path d="M26.712 69.513h-1.653L2.509 39.828v29.684H0V34.54h1.747l22.41 29.58V34.54h2.555v34.973z" fill="#1A1A18"/><path fill-rule="evenodd" clip-rule="evenodd" d="M62.854 68.654L57.664 57.7h-19.25l-5.19 10.954h-.85v-.047l15.523-33.21h.378l15.429 33.211v.048l-.85-.002zm-5.52-11.767l-9.247-19.878-9.341 19.878h18.587z" fill="#fff"/><path d="M63.704 69.513h-1.39l-5.19-10.956H38.953l-5.189 10.956h-2.24v-1.056l.08-.22 15.752-33.704h1.462L64.555 68.41v1.048l-.851.055zM40.09 56.03h15.902l-7.91-17.005L40.09 56.03z" fill="#1A1A18"/><path fill-rule="evenodd" clip-rule="evenodd" d="M77.767 68.654V36.3H66.208v-.854h23.968v.854h-11.56v32.355h-.85z" fill="#fff"/><path d="M79.468 69.512h-2.553V37.157h-11.56v-2.57h25.674v2.57h-11.56v32.355z" fill="#1A1A18"/><path fill-rule="evenodd" clip-rule="evenodd" d="M96.974 35.445v21.728c0 6.927 4.482 11.054 11.324 11.054 6.747 0 11.23-4.127 11.23-11.054V35.445h.754v21.728c0 7.352-4.67 11.908-11.983 11.908-7.312 0-12.173-4.555-12.173-11.908V35.445h.848z" fill="#fff"/><path d="M108.298 69.937c-7.914 0-13.026-5.015-13.026-12.764V34.581h2.555v22.592c0 6.29 4.013 10.196 10.471 10.196 6.401 0 10.37-3.907 10.37-10.196V34.581h2.46v22.592c.006 7.754-5.033 12.764-12.83 12.764z" fill="#1A1A18"/><path fill-rule="evenodd" clip-rule="evenodd" d="M130.287 68.608v-33.21h12.262c5.991 0 10.852 3.748 10.852 9.96 0 5.932-4.341 9.583-9.908 9.966l11.275 13.14v.144h-1.038l-11.229-13.284h-11.365v13.284h-.849zm12.262-32.403H131.13v18.359h11.419c5.473 0 10.048-3.37 10.048-9.205.007-5.69-4.569-9.154-10.048-9.154z" fill="#fff"/><path d="M155.627 69.466h-2.285l-11.23-13.284h-10.124v13.284h-2.553V34.54h13.126c6.891 0 11.703 4.45 11.703 10.823 0 5.505-3.582 9.608-9.075 10.617l10.442 12.169-.004 1.317zm-23.637-15.76h10.559c4.578 0 9.197-2.58 9.197-8.347 0-4.884-3.782-8.297-9.197-8.297h-10.566l.007 16.644z" fill="#1A1A18"/><path fill-rule="evenodd" clip-rule="evenodd" d="M180.634 36.252h-17.835V51.1h17.222v.76h-17.222v15.987h17.929v.808h-18.731v-33.21h18.637v.807z" fill="#fff"/><path d="M181.581 69.512h-20.436V34.587h20.34v2.523h-17.834v13.132h17.221v2.476h-17.221v14.27h17.93v2.524z" fill="#1A1A18"/><path fill-rule="evenodd" clip-rule="evenodd" d="M242.186 56.748v11.86h-.797v-33.21c3.963 0 8.351-.048 12.314 0 6.417 0 11.37 4.223 11.37 10.675 0 6.498-5 10.675-11.37 10.675h-11.517zm0-.854h11.511c5.852 0 10.524-3.799 10.524-9.821 0-5.932-4.577-9.867-10.524-9.867-3.727-.05-7.689 0-11.511 0v19.688z" fill="#fff"/><path d="M243.039 69.466h-2.507V34.54h.853c1.305 0 2.656 0 4.022-.01 2.785-.011 5.644-.022 8.302.01 7.073 0 12.214 4.85 12.214 11.533 0 6.682-5.141 11.533-12.224 11.533H243.04l-.001 11.86zm0-14.43h10.658c5.695 0 9.67-3.685 9.67-8.963 0-5.305-3.975-9.01-9.67-9.01a421.803 421.803 0 0 0-7.657-.012c-1.004 0-2.006.008-3.001.011v17.974z" fill="#1A1A18"/><path fill-rule="evenodd" clip-rule="evenodd" d="M286.729 69.127c-9.72 0-16.608-7.068-16.608-17.08 0-10.01 6.888-17.078 16.608-17.078 9.813 0 16.702 7.07 16.702 17.079 0 10.008-6.889 17.08-16.702 17.08zm0-33.304c-9.248 0-15.759 6.739-15.759 16.225s6.511 16.275 15.759 16.275c9.342 0 15.853-6.786 15.853-16.275 0-9.489-6.511-16.225-15.853-16.225z" fill="#fff"/><path d="M286.729 69.985c-10.281 0-17.457-7.376-17.457-17.937 0-10.393 7.35-17.937 17.457-17.937 10.336 0 17.554 7.375 17.554 17.937 0 10.561-7.218 17.937-17.554 17.937zm0-33.304c-8.777 0-14.906 6.318-14.906 15.367 0 9.078 6.129 15.417 14.906 15.417 8.832 0 14.999-6.335 14.999-15.417 0-9.05-6.167-15.367-14.999-15.367z" fill="#1A1A18"/><path fill-rule="evenodd" clip-rule="evenodd" d="M311.598 68.608v-33.21h12.266c5.992 0 10.852 3.748 10.852 9.96 0 5.932-4.341 9.583-9.907 9.966l11.276 13.14v.144h-1.039l-11.225-13.284H312.45v13.284h-.852zm12.266-32.403h-11.419v18.359h11.419c5.473 0 10.05-3.37 10.05-9.205.001-5.69-4.58-9.154-10.048-9.154h-.002z" fill="#fff"/><path d="M336.938 69.466h-2.285l-11.226-13.284h-10.124v13.284h-2.556V34.54h13.12c6.89 0 11.705 4.45 11.705 10.823 0 5.505-3.583 9.608-9.073 10.617l10.443 12.169-.004 1.317zM313.3 53.706h10.564c4.577 0 9.196-2.58 9.196-8.347 0-4.884-3.781-8.297-9.196-8.297H313.3v16.644z" fill="#1A1A18"/><path fill-rule="evenodd" clip-rule="evenodd" d="M350.808 68.654V36.3h-11.559v-.854h23.969v.854h-11.56v32.355h-.85z" fill="#fff"/><path d="M352.511 69.512h-2.556V37.157h-11.559v-2.57h25.676v2.57h-11.561v32.355z" fill="#1A1A18"/><path fill-rule="evenodd" clip-rule="evenodd" d="M373.46 36.155v31.74h6.747v.76h-14.344v-.76h6.746v-31.74h-6.321v-.71h13.494v.71h-6.322z" fill="#fff"/><path d="M381.06 69.512h-16.051v-2.476h6.747V37.012h-6.321v-2.425h15.2v2.425h-6.322v30.024h6.747v2.476z" fill="#1A1A18"/><path fill-rule="evenodd" clip-rule="evenodd" d="M384.643 35.445l6.7 16.747 6.087 14.8h.047l5.897-14.8 6.747-16.747h.802v.093L397.571 68.7h-.329l-13.448-33.163v-.093h.849z" fill="#fff"/><path d="M398.146 69.559h-1.478l-13.727-33.852V34.68l.853-.093h1.426l6.915 17.285 5.306 12.905 5.141-12.903 6.964-17.287h2.232v1.024l-.065.249-13.567 33.699z" fill="#1A1A18"/><path fill-rule="evenodd" clip-rule="evenodd" d="M436.876 36.252h-17.834V51.1h17.221v.76h-17.221v15.987h17.929v.808H418.24v-33.21h18.636v.807z" fill="#fff"/><path d="M437.824 69.512h-20.437V34.587h20.341v2.523h-17.833v13.132h17.22v2.476h-17.22v14.27h17.929v2.524z" fill="#1A1A18"/><path fill-rule="evenodd" clip-rule="evenodd" d="M254.543 80.576c-.937-1.923-2.848-3.025-4.972-3.025-3.505-.055-5.876 2.596-5.876 6.07 0 3.492 2.372 6.072 5.857 6.072 2.212 0 4.248-1.176 5.097-3.276h.318c-.849 2.278-3.019 3.577-5.396 3.577-3.665 0-6.195-2.686-6.195-6.37 0-3.628 2.514-6.442 6.212-6.388 2.248.054 4.354 1.21 5.291 3.346l-.336-.006z" fill="#fff"/><path d="M249.571 90.846c-4.084 0-7.048-3.036-7.048-7.23 0-2.085.746-3.971 2.1-5.313a6.778 6.778 0 0 1 2.293-1.48 6.74 6.74 0 0 1 2.686-.453c2.725.066 5.043 1.545 6.059 3.858l.525 1.204h-2.176l-.234-.48c-.787-1.621-2.411-2.546-4.301-2.545-1.368 0-2.549.462-3.435 1.34-.964.953-1.493 2.327-1.493 3.87 0 3.068 2.058 5.21 5.004 5.21 1.969 0 3.623-1.055 4.307-2.74l.215-.535h2.122l-.432 1.158c-.933 2.513-3.365 4.136-6.192 4.136z" fill="#1A1A18"/><path fill-rule="evenodd" clip-rule="evenodd" d="M258.135 89.846v-8.579h6.848v8.58h-.283v-8.293h-6.265v8.292h-.3z" fill="#fff"/><path d="M265.836 90.706h-1.988v-8.294h-4.56v8.294h-2.006V80.41h8.554v10.295z" fill="#1A1A18"/><path fill-rule="evenodd" clip-rule="evenodd" d="M272.591 89.953c-2.212-.037-4.389-1.496-4.389-4.415 0-2.918 2.231-4.41 4.463-4.41 2.231 0 4.463 1.476 4.463 4.41 0 2.971-2.283 4.448-4.53 4.415h-.007zm.07-8.523c-2.087 0-4.157 1.37-4.157 4.11s2.051 4.091 4.106 4.11c2.087.02 4.193-1.35 4.193-4.11 0-2.74-2.074-4.104-4.141-4.104l-.001-.006z" fill="#fff"/><path d="M272.667 90.807h-.089c-2.518-.042-5.228-1.709-5.228-5.271 0-3.46 2.672-5.27 5.312-5.27s5.313 1.81 5.313 5.27c0 1.503-.51 2.802-1.476 3.759-.966.957-2.366 1.512-3.832 1.512zm0-8.525c-1.644 0-3.304 1.006-3.304 3.252 0 2.247 1.637 3.24 3.26 3.252a3.278 3.278 0 0 0 2.457-.937c.581-.579.875-1.358.875-2.315-.005-2.242-1.656-3.247-3.293-3.247l.005-.005z" fill="#1A1A18"/><path fill-rule="evenodd" clip-rule="evenodd" d="M280.555 94.278V82.855c0-.924.054-1.584-1.182-1.388l-.053-.304c1.485-.249 1.538.568 1.538 1.692v.747c.513-1.564 1.969-2.526 3.611-2.526 2.529 0 3.892 2.1 3.892 4.447 0 2.828-1.894 4.394-4.069 4.411-1.151.02-2.372-.396-3.435-1.279v5.624h-.302zm.299-6.016c1.063.924 2.284 1.37 3.435 1.353 1.999-.02 3.733-1.444 3.733-4.091 0-2.191-1.202-4.13-3.556-4.13-2.106 0-3.557 1.655-3.611 3.722l-.001 3.147z" fill="#fff"/><path d="M281.709 95.136h-2.007V82.74c0-.142 0-.318-.008-.45-.05 0-.113.01-.193.022l-.828.133-.347-1.988.849-.141c.821-.132 1.432-.022 1.872.353.183.157.33.353.429.573a4.709 4.709 0 0 1 2.988-1.028c2.793 0 4.745 2.183 4.745 5.307 0 3.08-2.022 5.245-4.915 5.269a5.944 5.944 0 0 1-2.588-.578l.003 4.924zm0-7.283a4.322 4.322 0 0 0 2.568.906c1.337-.015 2.888-.87 2.888-3.237 0-1.51-.707-3.273-2.703-3.273-1.554 0-2.715 1.213-2.756 2.887l.003 2.717z" fill="#1A1A18"/><path fill-rule="evenodd" clip-rule="evenodd" d="M294.232 81.554v8.292h-.3v-8.292h-3.47v-.285h7.256v.285h-3.486z" fill="#fff"/><path d="M295.085 90.706h-2.005v-8.294h-3.471V80.41h8.961v2h-3.485v8.295z" fill="#1A1A18"/><path fill-rule="evenodd" clip-rule="evenodd" d="M300.408 81.269h.318v7.935l6.336-7.935h.194v8.577h-.301v-7.955l-6.371 7.955h-.176V81.27z" fill="#fff"/><path d="M299.872 91.641v-.935h-.317V80.41h2.024v6.355l5.073-6.355h.394l.763-.952v.952h.3v10.295h-2.007v-6.382l-5.109 6.382h-.371l-.75.935z" fill="#1A1A18"/><path fill-rule="evenodd" clip-rule="evenodd" d="M311.078 89.864v-8.58h2.849c1.468 0 3.344.181 3.344 2.1 0 1.105-.671 1.656-1.628 1.923 1.221.231 2.177.837 2.177 2.224 0 2.1-2.036 2.331-3.665 2.331l-3.077.002zm.318-8.258v3.577h2.529c1.275 0 3.026-.09 3.026-1.799 0-1.688-1.752-1.779-3.026-1.779l-2.529.001zm0 3.88v4.075h2.756c1.435 0 3.346-.144 3.346-2.03 0-1.993-2.107-2.047-3.575-2.047l-2.527.002z" fill="#fff"/><path d="M314.158 90.722h-3.938V80.427h3.701c1.039 0 4.201 0 4.201 2.957a2.693 2.693 0 0 1-.601 1.774c.968.708 1.151 1.716 1.151 2.376.002 2.114-1.518 3.188-4.514 3.188zm-1.908-2.019h1.908c2.302 0 2.494-.554 2.494-1.17 0-.792-.42-1.188-2.723-1.188h-1.676l-.003 2.358zm0-4.378h1.677c2.009 0 2.172-.426 2.172-.94 0-.515-.163-.925-2.172-.925h-1.677v1.865z" fill="#1A1A18"/><path fill-rule="evenodd" clip-rule="evenodd" d="M320.987 81.269h.318v4.003h6.266v-4.003h.301v8.579h-.301v-4.271h-6.266v4.27h-.318V81.27z" fill="#fff"/><path d="M328.724 90.706h-2.006v-4.272h-4.56v4.272h-2.024V80.41h2.024v4.003h4.56V80.41h2.006v10.295z" fill="#1A1A18"/><path fill-rule="evenodd" clip-rule="evenodd" d="M331.697 89.846v-8.579h.317v3.115h2.567c1.733 0 3.662.569 3.662 2.703 0 2.154-1.93 2.76-3.662 2.76l-2.884.001zm.317-5.147v4.824h2.567c1.538 0 3.344-.528 3.344-2.44 0-1.868-1.805-2.384-3.344-2.384h-2.567zm8.44 5.147h-.317v-8.579h.317v8.58z" fill="#fff"/><path d="M341.305 90.706h-2.024V80.41h2.024v10.295zm-6.727 0h-3.738V80.41h2.025v3.114h1.719c2.828 0 4.516 1.332 4.516 3.564s-1.737 3.617-4.516 3.617h-.006zm-1.713-2.038h1.719c.931 0 2.494-.205 2.494-1.584 0-1.33-1.559-1.527-2.494-1.527h-1.719v3.11z" fill="#1A1A18"/><path fill-rule="evenodd" clip-rule="evenodd" d="M344.274 81.269h.318v7.935l6.336-7.935h.195v8.579h-.302V81.89l-6.37 7.955h-.177v-8.579.002zm1.327-3.503c.23 1.139 1.29 1.812 2.335 1.812 1.151 0 2.124-.747 2.337-1.812l-.263-.074c-.194.998-1.133 1.584-2.07 1.584-1.026-.037-1.858-.606-2.051-1.584l-.288.074z" fill="#fff"/><path d="M343.739 91.641v-.935h-.318V80.41h2.024v6.355l5.073-6.355h.394l.761-.95v.95h.302v10.295h-2.008v-6.383l-5.11 6.381h-.372l-.746.938zm4.2-11.205c-1.545 0-2.879-1.056-3.17-2.5l-.16-.792 1.94-.504.176.89c.156.793.992.886 1.245.896.497 0 1.089-.308 1.204-.894l.179-.905 1.917.528-.156.782c-.299 1.47-1.604 2.499-3.178 2.499h.003z" fill="#1A1A18"/><path fill-rule="evenodd" clip-rule="evenodd" d="M360.145 81.269l2.85 3.772h.018l2.955-3.772h.353v.036l-3.131 3.986 3.433 4.52v.035h-.353l-3.257-4.29h-.018l-3.363 4.29h-.372v-.035l3.559-4.52-3.063-4.005v-.017h.389z" fill="#fff"/><path d="M366.621 90.706h-.773l-2.855-3.763-2.947 3.763h-1.638v-1.157l.184-.272 3.145-3.993-2.834-3.707v-1.15l1.666-.016 2.447 3.24 2.538-3.24h1.62v1.156l-.184.27-2.721 3.464 3.206 4.22v1.148l-.854.037z" fill="#1A1A18"/><path fill-rule="evenodd" clip-rule="evenodd" d="M371.559 89.988c-1.485 0-3.025-.887-3.025-2.562 0-1.795 1.664-2.81 3.309-2.81a7.814 7.814 0 0 1 3.486.87v-1.654c0-1.848-1.575-2.455-3.13-2.455-1.064 0-2.124.264-2.85.71l-.16-.264c.779-.482 1.894-.73 3.01-.73 1.734 0 3.412.693 3.412 2.74v4.224c0 1.122-.069 1.778 1.152 1.584l.053.302c-1.504.198-1.468-.66-1.468-1.886-.708 1.335-2.3 1.939-3.787 1.939l-.002-.008zm3.769-4.163a7.623 7.623 0 0 0-3.486-.891c-1.486 0-2.992.874-2.992 2.492 0 1.53 1.381 2.243 2.708 2.243 1.54 0 3.345-.696 3.769-2.35l.001-1.494z" fill="#fff"/><path d="M371.559 90.846c-1.881 0-3.878-1.199-3.878-3.42 0-2.376 2.143-3.668 4.162-3.668a8.492 8.492 0 0 1 2.633.443v-.37c0-1.32-1.238-1.596-2.277-1.596-.892 0-1.814.224-2.408.586l-.728.445-1.041-1.727.721-.446c.879-.545 2.139-.858 3.456-.858 2.631 0 4.267 1.38 4.267 3.598v4.391c0 .186 0 .421.012.582.042 0 .093-.01.155-.02l.828-.131.353 2.014-.883.116c-.797.1-1.384-.025-1.804-.396a1.607 1.607 0 0 1-.361-.465c-.983.659-2.187.922-3.207.922zm.284-5.054c-.86 0-2.138.435-2.138 1.634 0 1.094 1.165 1.386 1.854 1.386 1.215 0 2.565-.5 2.916-1.613v-.837a6.718 6.718 0 0 0-2.633-.57h.001z" fill="#1A1A18"/><path fill-rule="evenodd" clip-rule="evenodd" d="M379.682 94.278V82.855c0-.924.054-1.584-1.182-1.388l-.053-.304c1.486-.249 1.539.568 1.539 1.692v.747c.514-1.564 1.969-2.526 3.611-2.526 2.53 0 3.892 2.1 3.892 4.447 0 2.828-1.894 4.394-4.069 4.411a5.234 5.234 0 0 1-3.434-1.279v5.624h-.304zm.3-6.016c1.062.924 2.283 1.37 3.434 1.353 1.999-.02 3.733-1.444 3.733-4.091 0-2.191-1.202-4.13-3.556-4.13-2.106 0-3.557 1.655-3.611 3.722v3.147z" fill="#fff"/><path d="M380.834 95.136h-2.005V82.742c0-.143 0-.321-.008-.452-.05 0-.113.01-.193.022l-.826.133-.353-1.988.852-.141c.82-.132 1.432-.022 1.872.353.183.157.33.353.429.573a4.709 4.709 0 0 1 2.989-1.028c2.793 0 4.745 2.183 4.745 5.307 0 3.08-2.022 5.245-4.916 5.27a5.797 5.797 0 0 1-2.588-.58l.002 4.925zm0-7.283a4.222 4.222 0 0 0 2.569.906c1.336-.015 2.888-.87 2.888-3.237 0-1.51-.708-3.273-2.703-3.273-1.555 0-2.716 1.213-2.756 2.887l.002 2.717z" fill="#1A1A18"/><path fill-rule="evenodd" clip-rule="evenodd" d="M392.971 89.988c-1.487 0-3.027-.887-3.027-2.562 0-1.795 1.662-2.81 3.309-2.81a7.823 7.823 0 0 1 3.485.87v-1.654c0-1.848-1.575-2.455-3.133-2.455-1.061 0-2.124.264-2.85.71l-.158-.264c.779-.482 1.895-.73 3.008-.73 1.734 0 3.412.693 3.412 2.74v4.224c0 1.122-.072 1.778 1.149 1.584l.054.302c-1.504.198-1.469-.66-1.469-1.886-.707 1.335-2.3 1.939-3.786 1.939l.006-.008zm3.768-4.163a7.632 7.632 0 0 0-3.485-.891c-1.487 0-2.991.874-2.991 2.492 0 1.53 1.381 2.243 2.708 2.243 1.538 0 3.344-.696 3.768-2.35v-1.494z" fill="#fff"/><path d="M392.972 90.846c-1.881 0-3.88-1.199-3.88-3.42 0-2.376 2.145-3.668 4.164-3.668a8.486 8.486 0 0 1 2.631.443v-.37c0-1.32-1.239-1.596-2.28-1.596-.891 0-1.812.224-2.407.586l-.734.445-1.029-1.73.716-.446c.879-.545 2.139-.858 3.456-.858 2.634 0 4.27 1.38 4.27 3.598v4.4c0 .184 0 .414.01.574.042 0 .092-.01.152-.019l.825-.132.361 2.014-.888.117c-.787.1-1.385-.027-1.803-.397a1.605 1.605 0 0 1-.361-.464c-.979.66-2.183.922-3.203.922zm.286-5.054c-.86 0-2.139.435-2.139 1.634 0 1.094 1.167 1.386 1.856 1.386 1.212 0 2.564-.5 2.915-1.613v-.837a6.713 6.713 0 0 0-2.632-.57z" fill="#1A1A18"/><path fill-rule="evenodd" clip-rule="evenodd" d="M407.434 81.253c0 2.047-.813 3.735-2.866 4.25l3.29 4.27v.055h-.354l-3.272-4.25a8.393 8.393 0 0 1-1.363.107h-1.664v4.143h-.318v-8.58h.318v4.11h1.664c2.653 0 4.263-1.208 4.263-4.11l.302.005z" fill="#fff"/><path d="M407.852 90.684h-.773l-3.229-4.193c-.329.034-.659.05-.989.05h-.808v4.144h-2.026V80.388h2.026v4.11h.81c2.362 0 3.412-1.002 3.412-3.252v-.858h2.009v.858c0 2.164-.842 3.791-2.35 4.63l2.771 3.61v1.151l-.853.046z" fill="#1A1A18"/><path fill-rule="evenodd" clip-rule="evenodd" d="M413.32 81.554v8.292h-.301v-8.292h-3.467v-.285h7.254v.285h-3.486z" fill="#fff"/><path d="M414.173 90.706h-2.007v-8.294h-3.468V80.41h8.962v2h-3.487v8.295z" fill="#1A1A18"/><path fill-rule="evenodd" clip-rule="evenodd" d="M426.45 89.347a7.215 7.215 0 0 1-2.937.66c-2.832 0-4.742-1.888-4.595-4.822.142-2.492 1.804-4.076 4.264-4.076 2.601 0 4.124 1.547 3.787 4.2h-7.734c-.088 2.706 1.68 4.378 4.281 4.378a6.76 6.76 0 0 0 2.813-.64l.132.3h-.011zm.248-4.355c.23-2.348-1.312-3.594-3.523-3.594-2.247 0-3.716 1.37-3.928 3.594h7.451z" fill="#fff"/><path d="M423.511 90.867c-1.635 0-3.079-.573-4.069-1.612-.99-1.039-1.467-2.464-1.389-4.113.167-2.928 2.223-4.892 5.12-4.892 1.575 0 2.853.502 3.687 1.451.81.924 1.136 2.209.946 3.713l-.094.75h-7.586c.082.637.361 1.231.797 1.7 1.058 1.098 3.119 1.275 5.048.396l.799-.362.788 1.892-.767.339a8.11 8.11 0 0 1-3.28.738zm-3.216-6.732h5.547a1.995 1.995 0 0 0-.483-1.1c-.452-.502-1.227-.778-2.184-.778-1.445-.006-2.456.665-2.877 1.872l-.003.006z" fill="#1A1A18"/><path fill-rule="evenodd" clip-rule="evenodd" d="M430.342 94.278V82.855c0-.924.054-1.584-1.181-1.388l-.054-.304c1.487-.249 1.541.568 1.541 1.692v.747c.513-1.564 1.969-2.526 3.61-2.526 2.532 0 3.893 2.1 3.893 4.447 0 2.828-1.894 4.394-4.069 4.411a5.235 5.235 0 0 1-3.433-1.279v5.624h-.307zm.302-6.016c1.061.924 2.281 1.37 3.432 1.353 2.001-.02 3.735-1.444 3.735-4.091 0-2.191-1.204-4.13-3.557-4.13-2.101 0-3.556 1.655-3.61 3.722v3.147z" fill="#fff"/><path d="M431.497 95.136h-2.011V82.742c0-.143 0-.321-.008-.452-.05 0-.113.01-.193.022l-.828.133-.346-1.988.849-.141c.822-.132 1.433-.022 1.873.355.184.156.33.352.429.572a4.71 4.71 0 0 1 2.988-1.028c2.794 0 4.747 2.183 4.747 5.307 0 3.08-2.022 5.246-4.917 5.27a6.105 6.105 0 0 1-2.586-.579l.003 4.923zm0-7.283a4.222 4.222 0 0 0 2.566.906c1.337-.015 2.888-.87 2.888-3.237 0-1.51-.707-3.273-2.704-3.273-1.554 0-2.714 1.213-2.756 2.887l.006 2.717z" fill="#1A1A18"/><path d="M127.16 109.875l-.525-1.63a539.328 539.328 0 0 0 71.061-29.169c5.537-2.75 10.842-5.56 14.906-9.711 4.539-4.637 6.755-10.51 5.927-15.707-1.107-6.948-6.744-11.516-12.713-16.352-2.052-1.661-4.171-3.38-6.058-5.184-1.527-1.463-3.301-3.465-3.46-5.98-.231-3.695 2.841-6.752 8.885-8.836A606.597 606.597 0 0 1 265.336 0l.385 1.671a605.145 605.145 0 0 0-59.986 17.261c-3.653 1.26-7.961 3.515-7.737 7.107.121 1.92 1.63 3.597 2.934 4.843 1.838 1.756 3.927 3.452 5.951 5.092 5.957 4.826 12.116 9.818 13.326 17.423.919 5.733-1.477 12.157-6.395 17.18-4.25 4.342-9.694 7.23-15.367 10.046a540.828 540.828 0 0 1-71.287 29.252z" fill="#FFD800"/><path d="M136.223 111.001l-.525-1.63c22.216-7.31 45.459-17.044 71.06-29.757 5.538-2.751 10.844-5.564 14.906-9.714 4.539-4.636 6.755-10.508 5.927-15.706-1.107-6.948-6.744-11.516-12.711-16.35-2.052-1.664-4.173-3.38-6.058-5.186-1.528-1.463-3.303-3.462-3.46-5.98-.318-5.069 5.669-7.127 8.885-8.24 20.595-7.105 41.948-12.26 60.351-16.536l.385 1.67c-18.368 4.267-39.666 9.41-60.19 16.49-3.856 1.33-7.954 3.036-7.737 6.511.121 1.922 1.632 3.598 2.934 4.844 1.838 1.757 3.929 3.451 5.953 5.093 5.956 4.826 12.115 9.816 13.325 17.423.919 5.733-1.476 12.157-6.395 17.18-4.249 4.34-9.693 7.23-15.366 10.047-25.674 12.74-48.991 22.504-71.284 29.841z" fill="#FFD800"/></svg>